<?xml version="1.0" encoding="UTF-8" standalone="no"?><!DOCTYPE svg PUBLIC "-//W3C//DTD SVG 1.1//EN" "http://www.w3.org/Graphics/SVG/1.1/DTD/svg11.dtd"><svg width="100%" height="100%" viewBox="0 0 517 99" version="1.1" xmlns="http://www.w3.org/2000/svg" xmlns:xlink="http://www.w3.org/1999/xlink" xml:space="preserve" style="fill-rule:evenodd;clip-rule:evenodd;stroke-linejoin:round;stroke-miterlimit:1.41421;"><path d="M281.538,48.857c-1.034,1.377 -3.799,5.17 -7.933,6.895c0,0 6.208,-18.972 -5.869,-18.972c-12.072,0 -23.111,15.181 -25.184,26.907c0,0 -5.859,6.897 -7.932,8.626c-2.069,1.726 -4.478,0.342 -1.375,-5.173c3.104,-5.521 14.482,-28.982 14.482,-28.982c0,0 -10.344,0.351 -12.419,0.696c-2.063,0.344 -4.134,-0.348 -3.79,-1.725c0,0 3.796,-6.898 0.691,-6.898c-3.104,0 -11.039,2.414 -6.207,13.105c0,0 -10.701,20.006 -21.738,28.631c-2.069,1.379 -4.141,-1.038 -2.413,-4.827c1.725,-3.798 14.493,-29.321 14.493,-29.321l-8.63,0c0,0 -2.412,1.035 -3.45,2.758c0,0 -5.179,-5.517 -12.073,-4.14c-6.897,1.382 -14.142,11.732 -18.286,20.004c0,0 -9.654,13.457 -13.452,16.214c-3.789,2.764 -2.756,-1.726 -1.029,-5.515c1.406,-3.104 1.37,-3.125 14.481,-28.286c0,0 -11.033,0.687 -13.795,0.687c-2.757,0 -3.453,-0.687 -2.757,-2.066c0,0 4.136,-6.903 0.344,-7.59c-3.797,-0.693 -9.318,4.483 -6.214,13.105c0,0 -8.62,19.321 -20.35,28.977c-1.725,1.724 -3.791,0.346 -1.373,-4.138c2.409,-4.487 14.48,-29.323 14.48,-29.323c0,0 -11.034,1.035 -13.452,1.035c-2.414,0 -3.446,-0.343 -3.103,-2.066c0,0 4.484,-5.869 0.689,-6.903c-3.793,-1.033 -9.656,5.52 -6.206,12.418c0,0 -9.663,21.046 -22.079,31.049c-4.139,3.792 -7.59,-1.384 -6.209,-5.18c0,0 15.869,-7.244 22.422,-27.244c1.38,-5.523 -5.174,-6.215 -11.388,-2.417c-6.204,3.792 -16.558,15.867 -16.208,31.045c0,6.212 7.244,10.691 14.483,3.796c7.246,-6.899 16.903,-19.319 20.699,-28.63c0,0 4.829,-2.761 7.245,-0.345c0,0 -6.895,15.175 -8.621,20.004c-1.732,4.83 -0.689,11.728 4.83,11.728c5.517,0 14.139,-11.038 26.558,-32.422c0,0 6.203,-0.004 7.589,1.035c0,0 -9.313,19.317 -10.692,22.42c-1.376,3.1 0.004,8.967 5.867,9.313c5.862,0.35 12.757,-12.074 15.866,-14.491c0,0 -1.378,14.145 7.587,14.145c8.975,0 13.452,-7.587 13.452,-7.587c0,0 0,7.246 6.903,7.246c6.896,0 19.315,-15.873 27.248,-31.391c0,0 5.525,0.689 8.283,-0.69c0,0 -9.318,17.591 -10.696,21.727c-1.38,4.142 -1.031,11.391 5.176,11.391c3.108,0 9.659,-8.283 12.414,-10.007c0,0 1.728,10.007 9.662,10.007c7.937,0 16.215,-8.976 18.625,-16.91c0,0 10.354,-6.551 12.767,-10.692c0.689,-1.721 -1.375,-2.411 -2.413,-1.033m-171.448,-7.242c3.106,-2.761 4.485,-0.691 3.8,2.066c-0.694,2.758 -7.589,16.216 -18.633,21.387c0,0 5.175,-15.867 14.833,-23.453m88.31,13.794c-2.418,4.488 -11.037,18.63 -16.211,17.592c-5.173,-1.034 -1.381,-11.382 0.688,-15.518c2.073,-4.142 10.692,-17.942 16.214,-16.559c5.522,1.377 1.141,11.09 -0.691,14.485m74.508,-5.863c-1.374,5.519 -4.134,10.004 -4.134,10.004c-1.386,0 -3.109,-1.728 -3.109,-1.728c6.555,-4.481 7.588,-13.797 3.452,-14.486c-4.141,-0.688 -10.007,1.382 -10.351,8.972c-0.343,7.589 8.97,10.003 8.97,10.003c-6.209,10.344 -13.454,12.763 -15.52,12.074c-9.319,-2.767 3.099,-26.561 7.237,-29.667c11.727,-9.318 14.836,-0.693 13.455,4.828" style="fill:#fff;fill-rule:nonzero;"/><path d="M9.236,88.151c3.56,2.977 9.783,6.562 18.519,5.806c14.493,-1.264 24.581,-25.844 35.291,-51.375c0,0 -5.982,0.323 -10.71,1.578c0,0 0,-3.465 1.261,-4.722c0,0 8.508,-0.319 11.026,-0.319c0,0 8.822,-16.706 13.24,-22.063c0,0 -17.963,-6.302 -28.997,-10.088c-11.028,-3.779 -28.677,-7.874 -36.237,11.35c-2.211,8.824 -0.007,26.471 19.215,28.049c10.404,0.63 19.547,-5.357 19.857,-16.073c0.32,-10.714 -8.818,-16.073 -8.818,-16.073c0,0 2.518,-1.26 2.83,-2.208c0,0 11.032,6.305 9.144,20.805c-0.952,5.986 -4.729,15.123 -22.063,16.386c-17.33,1.257 -23.95,-13.24 -24.896,-20.488c-0.949,-7.247 0.633,-19.854 17.021,-26.469c7.875,-3.153 16.7,-2.518 24.266,-0.947c7.56,1.577 31.208,8.312 36.883,9.258c0,0 6.366,-7.015 12.037,-5.437c0,0 -5.047,3.106 -6.217,7.376c0,0 23.69,13.976 90.082,5.824c0,0 -41.55,16.693 -96.227,1.259c0,0 -5.992,8.194 -10.406,19.224c0,0 9.146,-0.633 13.87,0.315c0,0 -13.233,16.389 -9.452,23.95c0,0 -11.031,-1.259 -5.991,-10.085c2.525,-2.833 4.73,-9.766 4.73,-9.766c0,0 -3.157,-0.636 -4.73,-0.636c0,0 -10.081,25.531 -22.063,42.864c-11.432,16.555 -35.237,14.138 -43.667,7.843c0,0 -13.983,-8.968 -5.055,-30.325c0,0 -4.193,18.151 6.257,25.187" style="fill:#fff;fill-rule:nonzero;"/><path d="M515.452,65.479c0,0 -10.696,-4.834 -17.936,-3.795c0,0 -1.379,-14.828 -4.488,-21.391c-3.108,-6.549 0.349,-9.31 2.07,-10.693c0,0 -2.416,-3.447 -4.142,-2.758c-1.725,0.691 -6.556,3.45 -5.864,12.762c0,0 -10.347,16.56 -12.07,19.324c0,0 -7.587,0.689 -6.213,8.62c0,0 -4.831,6.556 -6.204,2.755c-1.382,-3.789 3.451,-12.072 3.451,-12.072l17.588,-43.114c0,0 -6.555,3.793 -9.659,3.451l-9.314,22.419c0,0 -2.762,-6.209 -10.349,-5.175c-7.591,1.031 -13.796,8.619 -16.211,15.172c0,0 -5.524,5.176 -7.243,5.53c0,0 6.201,-20.014 -4.833,-20.014c-11.037,0 -19.657,12.077 -21.389,15.526c0,0 -2.758,3.101 -5.514,4.134c0,0 6.892,-19.312 -6.213,-19.66c-13.11,-0.344 -22.769,19.32 -24.839,25.184c-2.068,5.864 1.041,15.523 11.042,15.523c10.005,0 17.593,-16.906 17.593,-16.906c0,0 2.758,-1.373 3.792,0.344c0,0 -3.45,16.562 9.31,16.562c12.769,0 18.633,-15.869 18.633,-15.869c0,0 5.519,-4.138 7.246,-4.483c0,0 -5.172,20.352 7.243,20.006c7.248,-0.346 7.242,-2.757 14.14,-8.276c0,0 -0.69,11.381 13.461,1.718c0,0 2.409,5.865 11.035,6.212c8.629,0.346 14.144,-5.866 16.562,-11.382c0,0 13.794,-1.722 20.003,3.452l-0.688,-3.106Zm-119.015,-16.215c-1.38,5.52 -4.137,10.007 -4.137,10.007c-1.373,0 -3.102,-1.73 -3.102,-1.73c6.549,-4.482 7.588,-13.79 3.446,-14.486c-4.136,-0.69 -10.004,1.376 -10.346,8.971c-0.345,7.591 8.969,10.004 8.969,10.004c-6.211,10.345 -13.458,12.764 -15.529,12.074c-9.313,-2.767 3.11,-26.56 7.248,-29.673c11.729,-9.31 14.832,-0.68 13.451,4.833m31.743,0c-1.382,5.52 -4.145,10.007 -4.145,10.007c-1.376,0 -3.099,-1.73 -3.099,-1.73c6.546,-4.482 7.588,-13.79 3.446,-14.486c-4.133,-0.69 -10.002,1.376 -10.348,8.971c-0.345,7.591 8.97,10.004 8.97,10.004c-6.209,10.345 -13.458,12.764 -15.528,12.074c-9.315,-2.767 3.111,-26.56 7.247,-29.673c11.727,-9.31 14.833,-0.68 13.457,4.833m29.315,7.936c-1.725,4.83 -10.348,17.594 -16.208,17.594c-5.871,0 -3.106,-13.456 -0.348,-18.974c2.759,-5.523 10.005,-18.628 15.867,-16.903c5.867,1.727 3.408,10.68 0.689,18.283m22.08,16.212c-3.79,0.346 -3.453,0.002 -4.489,-1.725c0,0 7.932,0 9.657,-1.725c0,0 -1.376,3.103 -5.168,3.45m9.311,-12.42c0,4.487 -5.868,8.282 -10.349,8.282c0,0 4.137,-7.59 -2.41,-9.657l9.315,-15.528c0,0 4.142,7.594 3.444,16.903" style="fill:#fff;fill-rule:nonzero;"/><path d="M289.289,88.151c3.561,2.977 9.786,6.562 18.518,5.806c14.496,-1.264 24.583,-25.844 35.294,-51.375c0,0 -5.983,0.323 -10.711,1.578c0,0 0,-3.465 1.261,-4.722c0,0 8.508,-0.319 11.025,-0.319c0,0 8.822,-16.706 13.239,-22.063c0,0 -17.961,-6.302 -28.996,-10.088c-11.026,-3.779 -28.677,-7.874 -36.234,11.35c-2.212,8.824 -0.009,26.471 19.214,28.049c10.404,0.63 19.547,-5.357 19.856,-16.073c0.321,-10.714 -8.82,-16.073 -8.82,-16.073c0,0 2.519,-1.26 2.833,-2.208c0,0 11.032,6.305 9.144,20.805c-0.95,5.986 -4.731,15.123 -22.063,16.386c-17.331,1.257 -23.952,-13.24 -24.898,-20.488c-0.948,-7.247 0.635,-19.854 17.021,-26.469c7.877,-3.153 16.701,-2.518 24.267,-0.947c7.561,1.577 31.207,8.312 36.882,9.258c0,0 6.365,-7.015 12.037,-5.437c0,0 -5.047,3.106 -6.215,7.376c0,0 23.688,13.976 90.079,5.824c0,0 -41.548,16.693 -96.226,1.259c0,0 -5.99,8.194 -10.405,19.224c0,0 9.145,-0.633 13.871,0.315c0,0 -13.234,16.389 -9.453,23.95c0,0 -11.032,-1.259 -5.991,-10.085c2.524,-2.833 4.73,-9.766 4.73,-9.766c0,0 -3.157,-0.636 -4.73,-0.636c0,0 -10.081,25.531 -22.063,42.864c-11.433,16.555 -35.237,14.138 -43.665,7.843c0,0 -13.986,-8.968 -5.057,-30.325c0,0 -4.192,18.151 6.256,25.187" style="fill:#fff;fill-rule:nonzero;"/></svg>