<?xml version="1.0" encoding="UTF-8" standalone="no"?><!DOCTYPE svg PUBLIC "-//W3C//DTD SVG 1.1//EN" "http://www.w3.org/Graphics/SVG/1.1/DTD/svg11.dtd"><svg width="100%" height="100%" viewBox="0 0 182 99" version="1.1" xmlns="http://www.w3.org/2000/svg" xmlns:xlink="http://www.w3.org/1999/xlink" xml:space="preserve" style="fill-rule:evenodd;clip-rule:evenodd;stroke-linejoin:round;stroke-miterlimit:1.41421;"><path d="M9.236,88.151c3.56,2.977 9.783,6.562 18.519,5.806c14.493,-1.264 24.581,-25.844 35.291,-51.375c0,0 -5.982,0.323 -10.71,1.578c0,0 0,-3.465 1.261,-4.722c0,0 8.508,-0.319 11.026,-0.319c0,0 8.822,-16.706 13.24,-22.063c0,0 -17.963,-6.302 -28.997,-10.088c-11.028,-3.779 -28.677,-7.874 -36.237,11.35c-2.211,8.824 -0.007,26.471 19.215,28.049c10.404,0.63 19.547,-5.357 19.857,-16.073c0.32,-10.714 -8.818,-16.073 -8.818,-16.073c0,0 2.518,-1.26 2.83,-2.208c0,0 11.032,6.305 9.144,20.805c-0.952,5.986 -4.729,15.123 -22.063,16.386c-17.33,1.257 -23.95,-13.24 -24.896,-20.488c-0.949,-7.247 0.633,-19.854 17.021,-26.469c7.875,-3.153 16.7,-2.518 24.266,-0.947c7.56,1.577 31.208,8.312 36.883,9.258c0,0 6.366,-7.015 12.037,-5.437c0,0 -5.047,3.106 -6.217,7.376c0,0 23.69,13.976 90.082,5.824c0,0 -41.55,16.693 -96.227,1.259c0,0 -5.992,8.194 -10.406,19.224c0,0 9.146,-0.633 13.87,0.315c0,0 -13.233,16.389 -9.452,23.95c0,0 -11.031,-1.259 -5.991,-10.085c2.525,-2.833 4.73,-9.766 4.73,-9.766c0,0 -3.157,-0.636 -4.73,-0.636c0,0 -10.081,25.531 -22.063,42.864c-11.432,16.555 -35.237,14.138 -43.667,7.843c0,0 -13.983,-8.968 -5.055,-30.325c0,0 -4.193,18.151 6.257,25.187" style="fill:#fff;fill-rule:nonzero;"/></svg>